<svg width="25" height="26" viewBox="0 0 25 26" fill="none" xmlns="http://www.w3.org/2000/svg">
<path d="M0 19C0 18.4477 0.447715 18 1 18H24C24.5523 18 25 18.4477 25 19V19C25 19.5523 24.5523 20 24 20H1C0.447716 20 0 19.5523 0 19V19Z" fill="#F1F2F6"/>
<path d="M0 10C0 9.44772 0.447715 9 1 9H24C24.5523 9 25 9.44772 25 10V10C25 10.5523 24.5523 11 24 11H1C0.447716 11 0 10.5523 0 10V10Z" fill="#F1F2F6"/>
<path d="M0 1C0 0.447715 0.447715 0 1 0H24C24.5523 0 25 0.447715 25 1V1C25 1.55228 24.5523 2 24 2H1C0.447716 2 0 1.55228 0 1V1Z" fill="#F1F2F6"/>
</svg>
