<svg width="510" height="594" viewBox="0 0 510 594" fill="none" xmlns="http://www.w3.org/2000/svg">
<g clip-path="url(#clip0_10022_24)">
<path fill-rule="evenodd" clip-rule="evenodd" d="M302.244 65.306C310.092 55.5567 315.404 43.6088 314.517 30.2209C311.959 -8.35348 261.219 0.132389 251.349 19.6014C241.479 39.0704 242.652 88.4552 255.408 91.9349C260.495 93.3226 271.332 89.9233 282.362 82.8879L275.439 134.72H316.317L302.244 65.306Z" fill="#B28B67"/>
<path fill-rule="evenodd" clip-rule="evenodd" d="M289.525 44.3553C290.862 43.3831 292.459 42.7925 294.175 42.7925C298.878 42.7925 302.691 47.231 302.691 51.805C302.691 56.5634 300.568 60.2426 297.535 61.8034C299.155 65.1541 300.783 67.5858 302.691 68.0275C310.052 67.2395 319.723 47.8765 319.723 31.9775C319.723 14.5753 306.639 -0.467499 282.252 -0.467499C260.333 -0.467499 252.022 9.09696 251.593 17.5575C260.986 20.2894 277.399 21.3413 300.988 21.1625V22.965L280.549 24.7675L277.142 35.5825C282.562 35.1543 286.435 39.0883 289.525 44.3553Z" fill="#191847"/>
<path d="M333.349 597.962C260.917 597.962 202.199 538.648 202.199 465.479C202.199 392.31 260.917 332.995 333.349 332.995C405.781 332.995 464.499 392.31 464.499 465.479C464.499 538.648 405.781 597.962 333.349 597.962Z" fill="#C5CFD6"/>
<path fill-rule="evenodd" clip-rule="evenodd" d="M85.5115 577.522C107.335 526.406 123.117 481.896 129.452 458.413C140.299 418.204 148.551 382.822 150.637 369.609C155.61 338.1 112.378 336.265 106.664 351.925C98.0153 375.625 82.9164 453.497 64.7739 571.119L85.5115 577.522ZM338.649 417.106C318.626 408.73 248.507 382.518 214.689 375.104C204.971 372.973 195.552 370.993 186.696 369.204C160.375 363.886 146.737 414.139 172.089 418C235.223 427.616 324.726 437.546 332.386 438.66C343.121 440.222 351.233 422.37 338.649 417.106Z" fill="#B28B67"/>
<path fill-rule="evenodd" clip-rule="evenodd" d="M170.541 355.375L278.845 297.029V284.328H265.965C161.186 312.583 107.643 330.691 105.338 338.651C105.313 338.737 105.291 338.822 105.27 338.908C105.217 338.981 105.165 339.055 105.115 339.129C84.3494 369.351 71.9133 516.899 67.8315 527.946L107.622 534.229C122.843 474.497 171.541 432.886 170.247 361.347C170.597 359.248 170.685 357.258 170.541 355.375Z" fill="#1F28CF"/>
<path fill-rule="evenodd" clip-rule="evenodd" d="M269.847 390.027C279.757 387.928 288.882 386.054 296.691 384.605C347.13 375.242 361.838 346.669 353.142 284.328L260.209 284.328C245.028 288.942 166.135 323.955 125.202 342.578C98.1098 354.903 106.65 399.335 121.992 410.898C122.075 411.608 122.351 412.089 122.843 412.305C205.373 448.504 270.661 429.51 292.471 435.579L302.56 401.902L269.847 390.027Z" fill="#2B44FF"/>
<path fill-rule="evenodd" clip-rule="evenodd" d="M331.744 411.982C337.162 412.671 341.009 413.632 343.285 414.866C346.053 416.366 349.869 419.038 354.732 422.881C353.174 426.239 339.164 456.417 312.705 513.415C304.175 511.736 300.789 508.201 302.549 502.811C304.309 497.421 305.728 492.92 306.807 489.308L308.4 437.505C308.431 436.508 309.219 435.748 310.161 435.807C310.177 435.808 310.193 435.809 310.209 435.81L317.74 436.506C322.012 432.949 324.829 429.703 326.191 426.769C327.297 424.386 327.905 420.595 328.013 415.397L328.013 415.397C328.055 413.402 329.616 411.864 331.5 411.96C331.582 411.964 331.663 411.972 331.744 411.982Z" fill="#E4E4E4"/>
<path fill-rule="evenodd" clip-rule="evenodd" d="M95.4433 568.044C97.3488 573.428 98.3016 577.455 98.3016 580.128C98.3016 583.378 97.7899 588.122 96.7665 594.357C93.2035 594.357 61.1814 594.357 0.700472 594.357C-1.79595 585.623 -0.35487 580.908 5.0237 580.212C10.4023 579.515 14.8703 578.887 18.4279 578.325L63.0785 557.26C63.9377 556.855 64.9447 557.263 65.3277 558.172C65.3342 558.188 65.3406 558.204 65.3467 558.219L68.2168 565.587C73.196 568.046 77.242 569.275 80.355 569.275C82.8843 569.275 86.3772 568.194 90.8337 566.032L90.8337 566.032C92.544 565.202 94.5659 565.997 95.3499 567.807C95.3837 567.885 95.4149 567.964 95.4433 568.044Z" fill="#E4E4E4"/>
<path fill-rule="evenodd" clip-rule="evenodd" d="M176.839 248.515L122.508 290.736C107.773 294.943 95.4617 300.179 85.575 306.442C83.2397 308.694 80.4171 313.254 90.1025 312.466C99.7879 311.678 110.009 311.31 111.345 314.806C112.682 318.302 106.821 322.483 109.522 327.2C111.323 330.345 119.832 322.459 135.048 303.544L188.849 279.934L176.839 248.515ZM422.703 230.929L392.707 236.676C427.521 309.787 446.168 348.444 448.646 352.646C454.224 362.102 448.594 379.137 446.469 388.124C458.812 391.407 454.25 371.572 469.865 375.984C484.117 380.011 496.095 389.892 509.657 377.115C511.325 375.544 512.608 370.562 507.056 367.891C493.222 361.239 472.825 348.883 469.563 344.172C465.113 337.748 449.493 300 422.703 230.929Z" fill="#B28B67"/>
<path fill-rule="evenodd" clip-rule="evenodd" d="M164.182 253.104C157.192 252.573 149.588 253.799 141.436 256.706C137.425 258.136 135.268 262.737 136.62 266.982C137.405 269.448 139.201 271.251 141.354 272.05C139.794 273.254 138.22 274.452 136.633 275.642L150.339 305.254C208.016 274.82 262.227 251.875 286.929 201.632C295.22 184.769 292.414 127.489 293.205 106.651L274.989 98.7447C249.596 154.292 215.231 207.583 164.182 253.104Z" fill="#69A1AC"/>
<path fill-rule="evenodd" clip-rule="evenodd" d="M357.195 300.387C303.648 306.613 261.5 306.613 230.752 300.387C226.943 299.616 227.11 282.237 228.877 277.491C256.388 203.579 274.485 149.472 274.485 98.134C279.533 100.924 288.367 101.343 300.988 99.3885C334.906 152.294 350.497 212.996 357.195 300.387Z" fill="#191847"/>
<path fill-rule="evenodd" clip-rule="evenodd" d="M367.144 309.126C368.963 307.315 369.911 304.601 369.445 301.804L368.557 296.479C367.956 292.87 365.186 290.242 361.916 289.831C361.345 287.127 360.852 284.441 360.445 281.774C357.006 259.25 362.881 237.164 362.605 215.476C389.994 240.205 414.563 282.906 436.314 343.578L468.483 333.56C467.255 328.734 465.984 323.968 464.669 319.261C468.381 317.028 472.72 306.797 469.598 305.085C466.373 303.317 462.956 302.073 459.359 301.34C429.863 207.323 381.628 138.565 314.655 95.065L305.455 95.065L295.284 95.065C300.988 174.881 222.213 349.136 249.566 497.956C300.123 509.905 372.299 472.73 442.557 502.43C439.942 442.499 387.575 372.093 367.144 309.126V309.126Z" fill="#89C5CC"/>
<path fill-rule="evenodd" clip-rule="evenodd" d="M307.62 96.8675L316.408 125.465L298.712 146.903L314.705 163.75L276.014 233.858L323.328 163.89L307.62 146.903L323.328 127.958L307.62 96.8675Z" fill="black" fill-opacity="0.1"/>
<path fill-rule="evenodd" clip-rule="evenodd" d="M287.362 260.895C291.124 260.895 294.175 257.667 294.175 253.685C294.175 249.703 291.124 246.475 287.362 246.475C283.599 246.475 280.549 249.703 280.549 253.685C280.549 257.667 283.599 260.895 287.362 260.895ZM278.845 302.353C282.608 302.353 285.658 299.124 285.658 295.143C285.658 291.161 282.608 287.933 278.845 287.933C275.083 287.933 272.032 291.161 272.032 295.143C272.032 299.124 275.083 302.353 278.845 302.353ZM277.142 343.81C280.905 343.81 283.955 340.582 283.955 336.6C283.955 332.618 280.905 329.39 277.142 329.39C273.379 329.39 270.329 332.618 270.329 336.6C270.329 340.582 273.379 343.81 277.142 343.81Z" fill="black" fill-opacity="0.4"/>
</g>
<defs>
<clipPath id="clip0_10022_24">
<rect width="510" height="594" fill="white"/>
</clipPath>
</defs>
</svg>
